<svg xmlns="http://www.w3.org/2000/svg" version="1.1" xmlns:xlink="http://www.w3.org/1999/xlink" width="1000" height="1000"><g clip-path="url(#SvgjsClipPath1003)"><rect width="1000" height="1000" fill="#ffffff"></rect><g transform="matrix(3.5,0,0,3.5,150,150)"><svg xmlns="http://www.w3.org/2000/svg" version="1.1" xmlns:xlink="http://www.w3.org/1999/xlink" width="200" height="200"><svg xmlns="http://www.w3.org/2000/svg" version="1.1" xmlns:xlink="http://www.w3.org/1999/xlink" viewBox="0 0 200 200"><rect width="200" height="200" fill="url('#gradient')"></rect><defs><linearGradient id="gradient" gradientTransform="rotate(45 0.5 0.5)"><stop offset="0%" stop-color="#4c3700"></stop><stop offset="100%" stop-color="#faeed6"></stop></linearGradient><clipPath id="SvgjsClipPath1003"><rect width="1000" height="1000" x="0" y="0" rx="350" ry="350"></rect></clipPath></defs><g><g fill="#2c3431" transform="matrix(2.5739421868454126,0,0,2.5739421868454126,10.077806026767277,118.2922335170431)" stroke="#7d836e" stroke-width="0.2"><path d="M9.98 0L9.15-2.66L4.45-2.66L3.63 0L-0.03 0L5.19-14.22L8.41-14.22L13.66 0L9.98 0ZM6.80-10.23L5.27-5.30L8.33-5.30L6.80-10.23ZM26.58-14.22L26.58 0L23.17 0L23.17-5.94L18.13-5.94L18.13 0L14.70 0L14.70-14.22L18.13-14.22L18.13-8.57L23.17-8.57L23.17-14.22L26.58-14.22ZM40.79-7.47L40.79-6.82Q40.79-4.74 40.02-3.13Q39.25-1.53 37.83-0.67Q36.41 0.20 34.59 0.20Q32.77 0.20 31.37-0.64Q29.96-1.47 29.17-3.03Q28.39-4.58 28.35-6.59L28.35-6.59L28.35-7.39Q28.35-9.48 29.12-11.08Q29.88-12.68 31.31-13.54Q32.74-14.41 34.57-14.41L34.57-14.41Q36.38-14.41 37.79-13.55Q39.21-12.70 40.00-11.11Q40.78-9.52 40.79-7.47L40.79-7.47ZM37.30-6.76L37.30-7.41Q37.30-9.53 36.60-10.63Q35.89-11.73 34.57-11.73L34.57-11.73Q31.99-11.73 31.85-7.86L31.85-7.86L31.84-6.82Q31.84-4.73 32.53-3.60Q33.22-2.48 34.59-2.48L34.59-2.48Q35.89-2.48 36.59-3.58Q37.29-4.69 37.30-6.76L37.30-6.76ZM42.56-14.22L47.06-14.22L50.23-4.33L53.40-14.22L57.91-14.22L57.91 0L54.47 0L54.47-3.32L54.80-10.12L51.37 0L49.10 0L45.65-10.13L45.99-3.32L45.99 0L42.56 0L42.56-14.22ZM68.91-8.57L68.91-6.03L63.52-6.03L63.52-2.64L69.88-2.64L69.88 0L60.09 0L60.09-14.22L69.90-14.22L69.90-11.57L63.52-11.57L63.52-8.57L68.91-8.57Z"></path></g></g></svg></svg></g></g></svg>